<svg width="18" height="18" viewBox="0 0 15 15" fill="#9B9B9B">
    <g stroke="none" stroke-width="1">
        <g fill-rule="nonzero">
            <path d="M7.5,15 C3.35786438,15 0,11.6421356 0,7.5 C0,3.35786438 3.35786438,0 7.5,0 C11.6421356,0 15,3.35786438 15,7.5 C15,11.6421356 11.6421356,15 7.5,15 Z M7.5,13.8461538 C11.004884,13.8461538 13.8461538,11.004884 13.8461538,7.5 C13.8461538,3.99511601 11.004884,1.15384615 7.5,1.15384615 C3.99511601,1.15384615 1.15384615,3.99511601 1.15384615,7.5 C1.15384615,11.004884 3.99511601,13.8461538 7.5,13.8461538 Z"></path>
            <path d="M8,2.75 L8,0.25 C8,0.111928813 7.77614237,0 7.5,0 C7.22385763,0 7,0.111928813 7,0.25 L7,2.75 C7,2.88807119 7.22385763,3 7.5,3 C7.77614237,3 8,2.88807119 8,2.75 Z"></path>
            <path d="M8,14.75 L8,12.25 C8,12.1119288 7.77614237,12 7.5,12 C7.22385763,12 7,12.1119288 7,12.25 L7,14.75 C7,14.8880712 7.22385763,15 7.5,15 C7.77614237,15 8,14.8880712 8,14.75 Z"></path>
            <path d="M0.25,8 L2.75,8 C2.88807119,8 3,7.77614237 3,7.5 C3,7.22385763 2.88807119,7 2.75,7 L0.25,7 C0.111928813,7 4.85722573e-17,7.22385763 0,7.5 C-4.85722573e-17,7.77614237 0.111928813,8 0.25,8 Z"></path>
            <path d="M12.25,8 L14.75,8 C14.8880712,8 15,7.77614237 15,7.5 C15,7.22385763 14.8880712,7 14.75,7 L12.25,7 C12.1119288,7 12,7.22385763 12,7.5 C12,7.77614237 12.1119288,8 12.25,8 Z"></path>
            <path d="M7.5,10 C6.11928813,10 5,8.88071187 5,7.5 C5,6.11928813 6.11928813,5 7.5,5 C8.88071187,5 10,6.11928813 10,7.5 C10,8.88071187 8.88071187,10 7.5,10 Z M7.5,9.16666667 C8.42047458,9.16666667 9.16666667,8.42047458 9.16666667,7.5 C9.16666667,6.57952542 8.42047458,5.83333333 7.5,5.83333333 C6.57952542,5.83333333 5.83333333,6.57952542 5.83333333,7.5 C5.83333333,8.42047458 6.57952542,9.16666667 7.5,9.16666667 Z"></path>
        </g>
    </g>
</svg>
