<svg width="24" height="24" viewBox="0 0 24 24" fill="none" xmlns="http://www.w3.org/2000/svg">
<path d="M12.707 2.29346C12.3165 1.90293 11.6835 1.90293 11.293 2.29346L8.64648 4.93994C8.06097 5.52574 8.06083 6.47534 8.64648 7.06104L11.293 9.70752C11.6834 10.0976 12.3166 10.0976 12.707 9.70752C13.0974 9.3171 13.0972 8.68399 12.707 8.29346L11.4131 6.99951H12C15.3136 6.99951 17.9998 9.68597 18 12.9995C18 16.3132 15.3137 18.9995 12 18.9995C10.7239 18.9995 9.54372 18.6019 8.57227 17.9243C8.11945 17.6086 7.49569 17.7198 7.17969 18.1724C6.8638 18.6252 6.97502 19.2489 7.42773 19.5649C8.72394 20.4691 10.3016 20.9995 12 20.9995C16.4183 20.9995 20 17.4178 20 12.9995C19.9998 8.5814 16.4182 4.99951 12 4.99951H11.415L12.707 3.70752C13.0975 3.31707 13.0973 2.684 12.707 2.29346ZM3.2793 8.99951C2.67882 8.99951 2.32725 9.26833 2.27832 9.9126L2.09277 12.3882V12.4126C2.06348 12.8862 2.33203 13.2964 2.92285 13.2964C3.31348 13.2964 3.49414 13.2085 3.76758 12.9692C3.99217 12.7691 4.29991 12.5933 4.68555 12.5933C5.35925 12.5933 5.83283 13.0476 5.83301 13.6919C5.83301 14.3511 5.33984 14.8394 4.6709 14.8394C4.10449 14.8394 3.7627 14.5708 3.48926 14.1606C3.27447 13.8923 3.05948 13.7798 2.72266 13.7798C2.26868 13.7798 2.00015 14.0437 2 14.4829C2 14.6537 2.04404 14.8199 2.12207 14.9761C2.4834 15.6938 3.51855 16.2212 4.68555 16.2212C6.36035 16.2212 7.52246 15.2007 7.52246 13.6528C7.52229 12.3151 6.56531 11.3774 5.23242 11.3774C4.49526 11.3774 3.92389 11.6852 3.65039 12.1489H3.61621L3.75293 10.3765H6.44824C6.87793 10.3765 7.15137 10.1079 7.15137 9.68799C7.15121 9.26828 6.87292 8.99951 6.44824 8.99951H3.2793Z" fill="white"/>
</svg>
