<svg xmlns="http://www.w3.org/2000/svg" height="120px" width="100px" viewBox="0 0 19 23"><defs><style>.a{fill:#fff;}.b{fill:#737f8b;}</style></defs><path d="M18 22H1V1h12l5 5v16" class="a"></path><path d="M13 0H1a.94.94 0 0 0-1 1v21a.94.94 0 0 0 1 1h17a.94.94 0 0 0 1-1V5.9zm5 22H1V1h12v4a1.08 1.08 0 0 0 1 1h4z" class="b"></path><path d="M4 21h1v1H4zm0-2h1v1H4zm0-2h1v1H4zm0-2h1v1H4zm0-2h1v1H4zm0-2h1v1H4zm0-2h1v1H4zm0-2h1v1H4zm0-2h1v1H4zm0-2h1v1H4zm0-2h1v1H4zm1 19h1v1H5zm0-2h1v1H5zm0-2h1v1H5zm0-2h1v1H5zm0-2h1v1H5zm0-2h1v1H5zm0-2h1v1H5zm0-2h1v1H5zm0-2h1v1H5zm0-2h1v1H5z" class="b"></path></svg>
