<?xml version="1.0" encoding="UTF-8" standalone="no"?>
<svg width="120" height="120" viewBox="0 0 19 23" version="1.1" xmlns="http://www.w3.org/2000/svg" xmlns:xlink="http://www.w3.org/1999/xlink">
    <!-- Generator: Sketch 42 (36781) - http://www.bohemiancoding.com/sketch -->
    <title>SPREADSHEET</title>
    <desc>Created with Sketch.</desc>
    <defs>
        <path d="M0,1.49839123 C0,1.22313735 0.229532474,1 0.501509486,1 L12.0278727,1 L17,6 L17,21.5036068 C17,21.7777572 16.7850572,22 16.5095568,22 L0.49044323,22 C0.219578913,22 0,21.7783691 0,21.5016088 L0,1.49839123 Z" id="path-1"></path>
        <mask id="mask-2" maskContentUnits="userSpaceOnUse" maskUnits="objectBoundingBox" x="-1" y="-1" width="19" height="23">
            <rect x="-1" y="0" width="19" height="23" fill="white"></rect>
            <use xlink:href="#path-1" fill="black"></use>
        </mask>
        <mask id="mask-3" maskContentUnits="userSpaceOnUse" maskUnits="objectBoundingBox" x="-1" y="-1" width="19" height="23">
            <rect x="-1" y="0" width="19" height="23" fill="white"></rect>
            <use xlink:href="#path-1" fill="black"></use>
        </mask>
        <path d="M0,0.509649515 C0,0.22817786 0.225639343,-1.11022302e-16 0.493741035,-1.11022302e-16 L12.506259,-1.11022302e-16 C12.7789446,-1.11022302e-16 13,0.227652788 13,0.509649515 L13,9.49035048 C13,9.77182214 12.7743607,10 12.506259,10 L0.493741035,10 C0.221055391,10 0,9.77234721 0,9.49035048 L0,0.509649515 Z" id="path-4"></path>
        <mask id="mask-5" maskContentUnits="userSpaceOnUse" maskUnits="objectBoundingBox" x="0" y="0" width="13" height="10" fill="white">
            <use xlink:href="#path-4"></use>
        </mask>
    </defs>
    <g id="Page-1" stroke="none" stroke-width="1" fill="none" fill-rule="evenodd">
        <g id="BDL-UI-Kit-2.0" transform="translate(-447.000000, -1795.000000)">
            <g id="File-&amp;-Folder-Icons" transform="translate(150.000000, 1648.000000)">
                <g id="SPREADSHEET" transform="translate(298.000000, 147.000000)">
                    <g id="Rectangle-494-Copy-8-+-Path-121-Copy-8-+-Path-189-Copy-Copy-Copy">
                        <g id="Rectangle-494-Copy-8-+-Path-121-Copy-8">
                            <g id="Rectangle-494-Copy-8">
                                <use fill="#FFFFFF" fill-rule="evenodd" xlink:href="#path-1"></use>
                                <use stroke="#FFFFFF" mask="url(#mask-2)" stroke-width="2" xlink:href="#path-1"></use>
                                <use stroke="#3FB87F" mask="url(#mask-3)" stroke-width="2" xlink:href="#path-1"></use>
                            </g>
                            <path d="M13.0119183,6 C12.4581277,6 12.0085009,5.54902482 12.0076739,5.00922203 L12,0 L18,6 L13.0119183,6 Z" id="Path-121-Copy-8" fill="#3FB87F"></path>
                        </g>
                    </g>
                    <g id="Excel-file-4-+-Rectangle-535-Copy" transform="translate(2.000000, 9.000000)">
                        <g id="Excel-file-4">
                            <use id="Rectangle-495" stroke="#3FB87F" mask="url(#mask-5)" stroke-width="2" xlink:href="#path-4"></use>
                            <path d="M5,4 L5,6 L13,6 L13,7 L5,7 L5,9 L4,9 L4,7 L0,7 L0,6 L4,6 L4,4 L0,4 L0,3 L4,3 L4,0 L5,0 L5,3 L13,3 L13,4 L5,4 Z" id="Rectangle-496" fill="#3FB87F"></path>
                        </g>
                    </g>
                </g>
            </g>
        </g>
    </g>
</svg>
