<?xml version="1.0" encoding="UTF-8" standalone="no"?>
<svg width="160px" height="160px" viewBox="0 0 19 23" version="1.1" xmlns="http://www.w3.org/2000/svg" xmlns:xlink="http://www.w3.org/1999/xlink">
    <!-- Generator: Sketch 42 (36781) - http://www.bohemiancoding.com/sketch -->
    <title>BOX NOTE</title>
    <desc>Created with Sketch.</desc>
    <defs>
        <path d="M0,1.49839123 C0,1.22313735 0.229532474,1 0.501509486,1 L12.0278727,1 L17,6 L17,21.5036068 C17,21.7777572 16.7850572,22 16.5095568,22 L0.49044323,22 C0.219578913,22 0,21.7783691 0,21.5016088 L0,1.49839123 Z" id="path-1"></path>
        <mask id="mask-2" maskContentUnits="userSpaceOnUse" maskUnits="objectBoundingBox" x="-1" y="-1" width="19" height="23">
            <rect x="-1" y="0" width="19" height="23" fill="white"></rect>
            <use xlink:href="#path-1" fill="black"></use>
        </mask>
        <mask id="mask-3" maskContentUnits="userSpaceOnUse" maskUnits="objectBoundingBox" x="-1" y="-1" width="19" height="23">
            <rect x="-1" y="0" width="19" height="23" fill="white"></rect>
            <use xlink:href="#path-1" fill="black"></use>
        </mask>
    </defs>
    <g id="Page-1" stroke="none" stroke-width="1" fill="none" fill-rule="evenodd">
        <g id="BDL-UI-Kit-2.0" transform="translate(-264.000000, -1935.000000)">
            <g id="File-&amp;-Folder-Icons" transform="translate(150.000000, 1648.000000)">
                <g id="BOX-NOTE" transform="translate(115.000000, 287.000000)">
                    <g id="Rectangle-494-Copy-8-+-Path-121-Copy-8-Copy-Copy-Copy-+-Rectangle-928-Copy-Copy-Copy-Copy-Copy-+-Rectangle-532-Copy-+-Rectangle-533-Copy-Copy-Copy-Copy-+-Rectangle-511-Copy-+-Rectangle-1350-Copy-Copy">
                        <g id="Rectangle-494-Copy-8-+-Path-121-Copy-8-Copy-Copy-Copy-+-Rectangle-928-Copy-Copy-Copy-Copy-Copy-+-Rectangle-532-Copy-+-Rectangle-533-Copy-Copy-Copy-Copy">
                            <g id="Rectangle-494-Copy-8-+-Path-121-Copy-8-Copy-Copy-Copy-+-Rectangle-928-Copy-Copy-Copy-Copy-Copy">
                                <g id="Rectangle-494-Copy-8-+-Path-121-Copy-8-Copy-Copy-Copy">
                                    <g id="Rectangle-494-Copy-8">
                                        <use fill="#FFFFFF" fill-rule="evenodd" xlink:href="#path-1"></use>
                                        <use stroke="#FFFFFF" mask="url(#mask-2)" stroke-width="2" xlink:href="#path-1"></use>
                                        <use stroke="#2596C9" mask="url(#mask-3)" stroke-width="2" xlink:href="#path-1"></use>
                                    </g>
                                    <path d="M13.0119183,6 C12.4581277,6 12.0085009,5.54902482 12.0076739,5.00922203 L12,0 L18,6 L13.0119183,6 Z" id="Path-121-Copy-8" fill="#2596C9"></path>
                                </g>
                            </g>
                        </g>
                    </g>
                    <g id="logo-(1)" transform="translate(2.000000, 8.000000)">
                        <g id="Layer_1">
                            <path d="M9.85,1.5 L1.1,1.5 C0.7,1.5 0.35,1.85 0.35,2.25 C0.35,2.65 0.7,3 1.1,3 L8.8,3 L9.85,1.5 Z" id="path-1" fill="#9725DD"></path>
                            <path d="M7.7,4.5 L1.1,4.5 C0.2,4.5 -1.11022302e-16,6 1.25,6 L6.65,6 L7.7,4.5 Z" id="path-3" fill="#2596C9"></path>
                            <path d="M5.7,7.5 L1.1,7.5 C0.7,7.5 0.35,7.85 0.35,8.25 C0.35,8.65 0.7,9 1.1,9 L5,9 L5.05,8.75 C5.1,8.6 5.1,8.35 5.2,8.25 L5.7,7.5 Z" id="path-5" fill="#00C8C0"></path>
                            <path d="M11.75,0.45 C11.75,0.45 12.25,0.3 12.6,0.6 C13,0.85 13,1.35 13,1.35 C13,1.45 12.5,2.2 12.5,2.2 C12.5,2.2 12.15,2.1 11.75,1.9 C11.3,1.65 11.1,1.25 11.1,1.25 L11.75,0.45 Z M10.7,1.95 C10.7,1.95 10.85,2.2 11.3,2.55 C11.75,2.85 12.05,2.9 12.05,2.9 L7.45,9.35 C7.35,9.45 7.2,9.6 7.15,9.65 L5.6,10.8 C5.5,10.9 5.4,10.85 5.45,10.7 L5.9,8.8 C5.95,8.7 6,8.5 6.1,8.4 L10.7,1.95 Z" id="Combined-Shape-Copy-6" fill="#000222"></path>
                        </g>
                    </g>
                </g>
            </g>
        </g>
    </g>
</svg>
