<svg xmlns="http://www.w3.org/2000/svg" width="160" viewBox="0 0 32 32"><path fill="#fff" d="M25 27H7V5h13l5 5v17"/><path fill="#f49d31" d="M20 4H7a.94.94 0 0 0-1 1v22a.94.94 0 0 0 1 1h18a.94.94 0 0 0 1-1V9.9zm5 23H7V5h13v4a.94.94 0 0 0 1 1h4z"/><path fill="#f49d31" d="M25 24H10.5a.5.5 0 0 1 0-1H25zm-4.35-10.45a.47.47 0 0 1 .06.63c-.14.24-1.65 1.76-2.57 2.68l-.07.07c-.45.45-.4.56-.39.6s.08.2 0 .29a.18.18 0 0 1-.24 0 .5.5 0 0 1 0-.54 2.15 2.15 0 0 1 .41-.52A31.57 31.57 0 0 0 20.37 14v-.17l-.27-.27c-.94 1-2.16 2.25-3.53 3.56L15.47 16c1.44-1.42 2.85-2.76 4-3.77a.76.76 0 0 1 1-.11.72.72 0 0 1-.1 1l-.08.09.29.28zM13 20.42a8.94 8.94 0 0 1-1.09.83l-.67-.65a8.84 8.84 0 0 1 .86-1.06c.59-.67 1.8-1.91 3-3.09l1.1 1.06c-1.28 1.16-2.56 2.33-3.2 2.91zm-2.7 1.75a.11.11 0 0 1-.14 0 .1.1 0 0 1 0-.14c.24-.35.46-.6.69-.93l.5.48c-.35.21-.69.36-1.05.59z"/></svg>
