<svg xmlns="http://www.w3.org/2000/svg" height="120px" width="100px" viewBox="0 0 19 23"><defs><style>.a{fill:#fff;}.b,.c{fill:#e33d55;}.c{fill-rule:evenodd;}</style></defs><path d="M18 22H1V1h12l5 5v16" class="a"/><path d="M13 0H1a.94.94 0 0 0-1 1v21a.94.94 0 0 0 1 1h17a.94.94 0 0 0 1-1V5.9zm5 22H1V1h12v4a1.08 1.08 0 0 0 1 1h4z" class="b"/><path d="M11 8h3v1h-3zm0 10h3v1h-3zm3-4h1v1h-1zm0-2h1v1h-1zm1 1h1v1h-1zm-2-4h1v3h-1zm0 6h1v3h-1zm-5 4H5v-1h3zM8 9H5V8h3zm-3 4H4v-1h1zm0 2H4v-1h1zm-1-1H3v-1h1zm2 4H5v-3h1zm0-6H5V9h1z" class="c"/></svg>
