<svg xmlns="http://www.w3.org/2000/svg" viewBox="0 0 19 23"><defs><style>.a{fill:#fff;}.b{fill:#e33d55;}</style></defs><path d="M18 22H1V1h12l5 5v16" class="a"/><path d="M13 0H1a1 1 0 0 0-1 1v21a1 1 0 0 0 1 1h17a1 1 0 0 0 1-1V5.89zm5 22H1V1h12v4a1 1 0 0 0 1 1h4z" class="b"/><path d="M15.53 15.17a2 2 0 0 0-1.76-.93 10 10 0 0 0-1.54.11 4.77 4.77 0 0 0 3.13.81 1 1 0 0 1-.84.86 2.4 2.4 0 0 1-1.52-.21 17.59 17.59 0 0 1-1.73-1 .55.55 0 0 0-.54-.09c-.86.31-1.72.61-2.58.93a.85.85 0 0 0-.37.3 13.14 13.14 0 0 1-2 2.45 7.56 7.56 0 0 1-.93.61h-.33a.88.88 0 0 1-.43-.58c0-.12-.06-.24-.1-.37v-.42c.27-1.19 1.23-1.49 2.29-1.74-1.08.8-1.5 1.42-1.41 2.1a.83.83 0 0 0 .13-.14 24.24 24.24 0 0 0 3.8-5.45.4.4 0 0 0 0-.41 6.94 6.94 0 0 1-.9-3.66 2.66 2.66 0 0 1 .27-.94c.08-.17.3-.26.46-.39H9a5 5 0 0 1 .62.31 1.06 1.06 0 0 1 .3 1.4A6.89 6.89 0 0 0 9.71 8a1.08 1.08 0 0 0-.3-.38c-.29-.22-.54-.12-.59.23a5.77 5.77 0 0 0 .51 3.35c.07-.23.15-.46.21-.69a7.22 7.22 0 0 0 .16-.74c0-.25 0-.5.07-.78a.9.9 0 0 1 .52.62 2.8 2.8 0 0 1-.08 1.62c-.08.28-.2.56-.28.84a.34.34 0 0 0 0 .27c.37.42.75.82 1.15 1.22a.36.36 0 0 0 .3 0 7.22 7.22 0 0 1 2.11-.44 1.82 1.82 0 0 1 2 1.69 1.09 1.09 0 0 0 0 .15zm-6-2.12l-1 1.84 1.9-.88z" class="b"/></svg>
