<svg xmlns="http://www.w3.org/2000/svg" viewBox="0 0 19 23"><defs><style>.a{fill:none;}.b{fill:#fff;}.c{fill:#22a7f0;}.d{clip-path:url(#a);}</style><clipPath id="a"><path d="M5 12.74h3v.76H5z" class="a"/></clipPath></defs><path d="M18 22H1V1h12l5 5v16" class="b"/><path d="M13 0H1a1 1 0 0 0-1 1v21a1 1 0 0 0 1 1h17a1 1 0 0 0 1-1V5.89zm5 22H1V1h12v4a1 1 0 0 0 1 1h4z" class="c"/><path d="M5.18 14l1.35-2.65L7.83 14h1.12l-1.74-3.54a.72.72 0 0 0-1.34 0L4.05 14z" class="c"/><g class="d"><path d="M0 8.94h13v8.36H0z" class="c"/></g><path d="M4 16h11v1H4zm6-3h5v1h-5zm-1-3h6v1H9z" class="c"/></svg>
