<?xml version="1.0" encoding="UTF-8" standalone="no"?>
<svg width="120" height="120" viewBox="0 0 19 23" version="1.1" xmlns="http://www.w3.org/2000/svg" xmlns:xlink="http://www.w3.org/1999/xlink">
    <!-- Generator: Sketch 42 (36781) - http://www.bohemiancoding.com/sketch -->
    <title>CODE</title>
    <desc>Created with Sketch.</desc>
    <defs>
        <path d="M0,1.49839123 C0,1.22313735 0.229532474,1 0.501509486,1 L12.0278727,1 L17,6 L17,21.5036068 C17,21.7777572 16.7850572,22 16.5095568,22 L0.49044323,22 C0.219578913,22 0,21.7783691 0,21.5016088 L0,1.49839123 Z" id="path-1"></path>
        <mask id="mask-2" maskContentUnits="userSpaceOnUse" maskUnits="objectBoundingBox" x="-1" y="-1" width="19" height="23">
            <rect x="-1" y="0" width="19" height="23" fill="white"></rect>
            <use xlink:href="#path-1" fill="black"></use>
        </mask>
        <mask id="mask-3" maskContentUnits="userSpaceOnUse" maskUnits="objectBoundingBox" x="-1" y="-1" width="19" height="23">
            <rect x="-1" y="0" width="19" height="23" fill="white"></rect>
            <use xlink:href="#path-1" fill="black"></use>
        </mask>
        <path d="M2,1 L3,1 L3,4 L2,4 L2,1 L2,1 Z M2,7 L3,7 L3,10 L2,10 L2,7 L2,7 Z M4,5 L5,5 L5,6 L4,6 L4,5 L4,5 Z M3,6 L4,6 L4,7 L3,7 L3,6 L3,6 Z M3,4 L4,4 L4,5 L3,5 L3,4 L3,4 Z M0,0 L3,0 L3,1 L0,1 L0,0 L0,0 Z M0,10 L3,10 L3,11 L0,11 L0,10 L0,10 Z" id="path-4"></path>
        <path d="M3,10 L2,10 L2,7 L3,7 L3,10 L3,10 Z M3,4 L2,4 L2,1 L3,1 L3,4 L3,4 Z M1,6 L0,6 L0,5 L1,5 L1,6 L1,6 Z M2,5 L1,5 L1,4 L2,4 L2,5 L2,5 Z M2,7 L1,7 L1,6 L2,6 L2,7 L2,7 Z M5,11 L2,11 L2,10 L5,10 L5,11 L5,11 Z M5,1 L2,1 L2,0 L5,0 L5,1 L5,1 Z" id="path-6"></path>
    </defs>
    <g id="Page-1" stroke="none" stroke-width="1" fill="none" fill-rule="evenodd">
        <g id="BDL-UI-Kit-2.0" transform="translate(-355.000000, -1795.000000)">
            <g id="File-&amp;-Folder-Icons" transform="translate(150.000000, 1648.000000)">
                <g id="CODE" transform="translate(206.000000, 147.000000)">
                    <g id="Rectangle-494-Copy-8-+-Path-121-Copy-8-Copy-Copy-Copy-+-Rectangle-928-Copy-Copy-Copy-Copy-Copy-+-Rectangle-532-Copy-+-Rectangle-533-Copy-Copy-Copy-Copy-+-Rectangle-511-Copy-+-Rectangle-1350-Copy-Copy">
                        <g id="Rectangle-494-Copy-8-+-Path-121-Copy-8-Copy-Copy-Copy-+-Rectangle-928-Copy-Copy-Copy-Copy-Copy-+-Rectangle-532-Copy-+-Rectangle-533-Copy-Copy-Copy-Copy">
                            <g id="Rectangle-494-Copy-8-+-Path-121-Copy-8-Copy-Copy-Copy-+-Rectangle-928-Copy-Copy-Copy-Copy-Copy">
                                <g id="Rectangle-494-Copy-8-+-Path-121-Copy-8-Copy-Copy-Copy">
                                    <g id="Rectangle-494-Copy-8">
                                        <use fill="#FFFFFF" fill-rule="evenodd" xlink:href="#path-1"></use>
                                        <use stroke="#FFFFFF" mask="url(#mask-2)" stroke-width="2" xlink:href="#path-1"></use>
                                        <use stroke="#E33D55" mask="url(#mask-3)" stroke-width="2" xlink:href="#path-1"></use>
                                    </g>
                                    <path d="M13.0119183,6 C12.4581277,6 12.0085009,5.54902482 12.0076739,5.00922203 L12,0 L18,6 L13.0119183,6 Z" id="Path-121-Copy-8" fill="#E33D55"></path>
                                </g>
                            </g>
                        </g>
                    </g>
                    <g id="Page-1" transform="translate(2.000000, 8.000000)">
                        <g id="Group-3" transform="translate(8.000000, 0.000000)">
                            <mask id="mask-5" fill="white">
                                <use xlink:href="#path-4"></use>
                            </mask>
                            <g id="Clip-2"></g>
                            <polygon id="Fill-1" fill="#E33D55" mask="url(#mask-5)" points="-5 -5 10 -5 10 16 -5 16"></polygon>
                        </g>
                        <g id="Group-6">
                            <mask id="mask-7" fill="white">
                                <use xlink:href="#path-6"></use>
                            </mask>
                            <g id="Clip-5"></g>
                            <polygon id="Fill-4" fill="#E33D55" mask="url(#mask-7)" points="-5 -5 10 -5 10 16 -5 16"></polygon>
                        </g>
                    </g>
                </g>
            </g>
        </g>
    </g>
</svg>
