<svg xmlns="http://www.w3.org/2000/svg" id="Layer_1" viewBox="0 0 19 23"><style>.st0{fill:#FFFFFF;} .st1{fill:#F7931D;} .st2{fill:none;}</style><path d="M18 22H1V1h12l5 5z" class="st0"/><path d="M13 0H1C.4 0 0 .4 0 1v21c0 .6.4 1 1 1h17c.6 0 1-.4 1-1V5.9L13 0zm5 22H1V1h12v4c0 .6.4 1 1 1h4v16z" class="st1"/><path d="M5 11.2c0-.3.2-.6.4-.7L9 8.6c.3-.1.6-.1.9 0l3.6 1.9c.3.2.4.4.4.7v4.9c0 .3-.2.6-.4.7l-3.6 1.9c-.3.1-.6.1-.9 0l-3.6-1.9c-.2-.1-.4-.4-.4-.7v-4.9z" class="st2"/><path d="M13.5 10.4L9.9 8.5c-.3-.1-.6-.1-.9 0l-3.5 1.9c-.3.2-.5.5-.5.8v4.9c0 .3.2.6.4.7L9 18.7c.3.1.6.1.9 0l3.6-1.9c.3-.2.4-.4.5-.7v-4.9c-.1-.3-.2-.6-.5-.8zM6 16v-4.7l3.4-1.8 3.5 1.8-3.5 2.1v4.4L6 16z" class="st1"/></svg>
