<svg xmlns="http://www.w3.org/2000/svg" viewBox="0 0 19 23"><defs><style>.a{fill:#fff;}.b{fill:#0061d5;}.c{fill:#980de0;}.d{fill:#00c9c1;}.e{fill:#000123;}</style></defs><path d="M18 22H1V1h12l5 5v16" class="a"/><path d="M13 0H1a1 1 0 0 0-1 1v21a1 1 0 0 0 1 1h17a1 1 0 0 0 1-1V5.89zm5 22H1V1h12v4a1 1 0 0 0 1 1h4z" class="b"/><path d="M12.85 9.5H4.1a.75.75 0 0 0 0 1.5h7.7z" class="c"/><path d="M10.7 12.5H4.1a.76.76 0 1 0 .15 1.5h5.4z" class="b"/><path d="M8.7 15.5H4.1a.75.75 0 0 0 0 1.5H8l.05-.25c.05-.15.05-.4.15-.5z" class="d"/><path d="M13.7 9.95a2.57 2.57 0 0 0 .6.6 2.17 2.17 0 0 0 .75.35l-4.6 6.45-.3.3L8.6 18.8c-.1.1-.2 0-.15-.1l.45-1.9a1.5 1.5 0 0 1 .2-.4zm1.05-1.5a1 1 0 0 1 .85.15 1 1 0 0 1 .4.75 6.38 6.38 0 0 1-.5.85 4.86 4.86 0 0 1-.75-.3 1.7 1.7 0 0 1-.65-.65z" class="e"/></svg>
