<?xml version="1.0" encoding="UTF-8" standalone="no"?>
<svg width="120" height="120" viewBox="0 0 19 23" version="1.1" xmlns="http://www.w3.org/2000/svg" xmlns:xlink="http://www.w3.org/1999/xlink">
    <!-- Generator: Sketch 42 (36781) - http://www.bohemiancoding.com/sketch -->
    <title>DICOM</title>
    <desc>Created with Sketch.</desc>
    <defs>
        <path d="M0,1.49839123 C0,1.22313735 0.229532474,1 0.501509486,1 L12.0278727,1 L17,6 L17,21.5036068 C17,21.7777572 16.7850572,22 16.5095568,22 L0.49044323,22 C0.219578913,22 0,21.7783691 0,21.5016088 L0,1.49839123 Z" id="path-1"></path>
        <mask id="mask-2" maskContentUnits="userSpaceOnUse" maskUnits="objectBoundingBox" x="-1" y="-1" width="19" height="23">
            <rect x="-1" y="0" width="19" height="23" fill="white"></rect>
            <use xlink:href="#path-1" fill="black"></use>
        </mask>
        <mask id="mask-3" maskContentUnits="userSpaceOnUse" maskUnits="objectBoundingBox" x="-1" y="-1" width="19" height="23">
            <rect x="-1" y="0" width="19" height="23" fill="white"></rect>
            <use xlink:href="#path-1" fill="black"></use>
        </mask>
    </defs>
    <g id="Page-1" stroke="none" stroke-width="1" fill="none" fill-rule="evenodd">
        <g id="BDL-UI-Kit-2.0" transform="translate(-537.000000, -1935.000000)">
            <g id="File-&amp;-Folder-Icons" transform="translate(150.000000, 1648.000000)">
                <g id="DICOM" transform="translate(388.000000, 287.000000)">
                    <g id="Rectangle-494-Copy-8-+-Path-121-Copy-8-Copy-Copy-Copy">
                        <g id="Rectangle-494-Copy-8">
                            <use fill="#FFFFFF" fill-rule="evenodd" xlink:href="#path-1"></use>
                            <use stroke="#FFFFFF" mask="url(#mask-2)" stroke-width="2" xlink:href="#path-1"></use>
                            <use stroke="#D0011B" mask="url(#mask-3)" stroke-width="2" xlink:href="#path-1"></use>
                        </g>
                        <path d="M13.0119183,6 C12.4581277,6 12.0085009,5.54902482 12.0076739,5.00922203 L12,0 L18,6 L13.0119183,6 Z" id="Path-121-Copy-8" fill="#D0011B"></path>
                    </g>
                    <path d="M3.65974644,15.5 L13.5,15.5" id="Line" stroke="#D0011B" stroke-linecap="square"></path>
                    <path d="M3.65974644,17.5 L13.5,17.5" id="Line" stroke="#D0011B" stroke-linecap="square"></path>
                    <path d="M8.5,19.5 L13.5,19.5" id="Line" stroke="#D0011B" stroke-linecap="square"></path>
                    <path d="M9.55,8.43478261 L9.55,7.06521739 L9.55,6 L7.45,6 L7.45,7.06521739 L7.45,8.43478261 L6.05,8.43478261 L5,8.43478261 L5,10.5652174 L6.05,10.5652174 L7.45,10.5652174 L7.45,11.9347826 L7.45,13 L9.55,13 L9.55,11.9347826 L9.55,10.5652174 L10.95,10.5652174 L12,10.5652174 L12,8.43478261 L10.95,8.43478261 L9.55,8.43478261 Z" id="Medical" fill="#D0011B"></path>
                </g>
            </g>
        </g>
    </g>
</svg>
