<svg xmlns="http://www.w3.org/2000/svg" viewBox="0 0 19 23"><defs><style>.a,.e{fill:none;}.b{fill:#fff;}.c{fill:#f7931d;}.d{clip-path:url(#a);}.e{stroke:#f7931d;stroke-miterlimit:10;stroke-width:2px;}</style><clipPath id="a"><path d="M5 11.18a.91.91 0 0 1 .45-.74L9 8.55a1.06 1.06 0 0 1 .9 0l3.6 1.89a.92.92 0 0 1 .45.74v4.9a.91.91 0 0 1-.45.74l-3.6 1.89a1.06 1.06 0 0 1-.9 0l-3.6-1.89a.92.92 0 0 1-.4-.74z" class="a"/></clipPath></defs><path d="M18 22H1V1h12l5 5v16" class="b"/><path d="M13 0H1a1 1 0 0 0-1 1v21a1 1 0 0 0 1 1h17a1 1 0 0 0 1-1V5.89zm5 22H1V1h12v4a1 1 0 0 0 1 1h4z" class="c"/><path d="M9.5 13.42l3.75-2.28v5.52L9.5 18.18v-4.76" class="d c"/><path d="M5 11.18a.91.91 0 0 1 .45-.74L9 8.55a1.06 1.06 0 0 1 .9 0l3.6 1.89a.92.92 0 0 1 .45.74v4.9a.91.91 0 0 1-.45.74l-3.6 1.89a1.06 1.06 0 0 1-.9 0l-3.6-1.89a.92.92 0 0 1-.4-.74z" class="d e"/></svg>
