<svg xmlns="http://www.w3.org/2000/svg" width="160" viewBox="0 0 32 32"><path fill="#fff" d="M25 27H7V5h13l5 5v17"/><path fill="#f7931d" d="M20 4H7a.94.94 0 0 0-1 1v22a.94.94 0 0 0 1 1h18a.94.94 0 0 0 1-1V9.9zm5 23H7V5h13v4a.94.94 0 0 0 1 1h4z"/><path fill="none" d="M12 15.2a.84.84 0 0 1 .4-.7l3.6-1.9a1.39 1.39 0 0 1 .9 0l3.6 1.9a.75.75 0 0 1 .4.7v4.9a.84.84 0 0 1-.4.7l-3.6 1.9a1.39 1.39 0 0 1-.9 0l-3.6-1.9a.84.84 0 0 1-.4-.7z"/><path fill="#f7931d" d="M19.5 14.4l-3.6-1.9a1.39 1.39 0 0 0-.9 0l-3.5 1.9a1 1 0 0 0-.5.8v4.9a.84.84 0 0 0 .4.7l3.6 1.9a1.39 1.39 0 0 0 .9 0l3.6-1.9a1.16 1.16 0 0 0 .5-.7v-4.9a1.37 1.37 0 0 0-.5-.8zM12 20v-4.7l3.4-1.8 3.5 1.8-3.5 2.1v4.4z"/></svg>
