<svg xmlns="http://www.w3.org/2000/svg" width="32" height="32" viewBox="0 0 32 32"><g fill="none"><path fill="#D3D3D3" d="M9 3h9.586a1 1 0 01.707.293l6.415 6.414a1 1 0 01.293.707V26A3 3 0 0123 29H9a3 3 0 01-3-3V6a3 3 0 013-3z"/><path fill="#FFF" fill-opacity=".5" d="M19.286 3.286l5.01 5.009 1.412 1.412a1 1 0 01.203.293H21a2 2 0 01-2-2V3.09a1 1 0 01.286.196z"/><path fill="#4E4E4E" d="M10 24h1v1h-1v-1zm0-2h1v1h-1v-1zm0-2h1v1h-1v-1zm0-2h1v1h-1v-1zm0-2h1v1h-1v-1zm0-2h1v1h-1v-1zm0-2h1v1h-1v-1zm0-2h1v1h-1v-1zm0-2h1v1h-1V8zm1 15h1v1h-1v-1zm0-2h1v1h-1v-1zm0-2h1v1h-1v-1zm0-2h1v1h-1v-1zm0-2h1v1h-1v-1zm0-2h1v1h-1v-1zm0-2h1v1h-1v-1zm0-2h1v1h-1V9z"/></g></svg>