<svg xmlns="http://www.w3.org/2000/svg" width="32" height="32" viewBox="0 0 32 32"><g fill="none" fill-rule="evenodd"><path fill="#4083F7" fill-rule="nonzero" d="M9 3h9.586a1 1 0 01.707.293l6.415 6.414a1 1 0 01.293.707V26A3 3 0 0123 29H9a3 3 0 01-3-3V6a3 3 0 013-3z"/><path fill="#FFF" fill-opacity=".5" fill-rule="nonzero" d="M19.286 3.286l5.01 5.009 1.412 1.412a1 1 0 01.203.293H21a2 2 0 01-2-2V3.09a1 1 0 01.286.196z"/><path fill="#FFF" d="M16 23v1h-6v-1h6zm5-3v1H10v-1h11zm0-3v1H10v-1h11zm0-3v1H10v-1h11z"/></g></svg>