<svg xmlns="http://www.w3.org/2000/svg" width="24" height="31" xmlns:xlink="http://www.w3.org/1999/xlink"><defs><path id="a" d="M15 16l-4 4-4-4H1.99C.89 16 0 15.105 0 14.006V1.994C0 .894.89 0 1.99 0h18.02C21.11 0 22 .895 22 1.994v12.012c0 1.1-.89 1.994-1.99 1.994H15z"/><mask id="b" width="24" height="22" x="-1" y="-1"><path fill="#fff" d="M-1-1h24v22H-1z"/><use xlink:href="#a"/></mask></defs><g fill-rule="evenodd"><path d="M12 31c2.21 0 4-1.79 4-4s-1.79-4-4-4-4 1.79-4 4 1.79 4 4 4z"/><g transform="translate(1 1)"><use xlink:href="#a"/><use stroke="#FFF" stroke-width="2" mask="url(#b)" xlink:href="#a"/></g></g></svg>