<svg width="18" height="18" xmlns="http://www.w3.org/2000/svg"><path d="M15.5 13a2.5 2.5 0 11-2.186 3.714h-.222v-.543A2.502 2.502 0 0115.5 13zM3 12.388v.662a2.5 2.5 0 11-1.714.264v-.926H3zM11.092 15v1.714h-2V15h2zm-4 0v1.714h-2V15h2zM15 10.203h1.714v2H15v-2zM3 8.388v2H1.286v-2H3zm12-2.185h1.714v2H15v-2zM2.5 0c.94 0 1.76.52 2.187 1.288l1.629-.002L6.315 3H4.95A2.503 2.503 0 013 4.95v1.438H1.286V4.686A2.5 2.5 0 012.5 0zm13 0a2.5 2.5 0 11-2.45 3h-.735V1.286h1A2.5 2.5 0 0115.5 0zm-5.184 1.286L10.315 3h-2V1.286h2z" fill-rule="nonzero"/></svg>