<?xml version="1.0" encoding="utf-8"?>
<!-- Generator: Adobe Illustrator 18.1.1, SVG Export Plug-In . SVG Version: 6.00 Build 0)  -->
<svg version="1.1" id="Layer_1" xmlns="http://www.w3.org/2000/svg" xmlns:xlink="http://www.w3.org/1999/xlink" x="0px" y="0px"
	 viewBox="-11 13 24 24" enable-background="new -11 13 24 24" xml:space="preserve">
<path fill="#494949" d="M3.3,26.3H2.8l-0.2-0.2c0.7-0.8,1.1-1.8,1.1-2.9c0-2.5-2-4.5-4.5-4.5s-4.5,2-4.5,4.5s2,4.5,4.5,4.5
	c1.1,0,2.1-0.4,2.9-1.1l0.2,0.2v0.5l3.4,3.4l1-1L3.3,26.3z M-0.8,26.3c-1.7,0-3.1-1.4-3.1-3.1s1.4-3.1,3.1-3.1s3.1,1.4,3.1,3.1
	S0.9,26.3-0.8,26.3z"/>
<path fill="none" d="M-11,13h24v24h-24V13z"/>
</svg>
